HIERARCHY
ROOT Joint1
{
	OFFSET 0.000000 0.000000 0.000000
	CHANNELS 6 Xposition Yposition Zposition Xrotation Yrotation Zrotation
	JOINT Joint2
	{
		OFFSET -0.000000 0.000000 1.456275
		CHANNELS 6 Xposition Yposition Zposition Xrotation Yrotation Zrotation
		JOINT Joint3
		{
			OFFSET -0.000000 0.000002 1.471446
			CHANNELS 6 Xposition Yposition Zposition Xrotation Yrotation Zrotation
			JOINT Joint4
			{
				OFFSET 0.625745 0.000000 0.917755
				CHANNELS 6 Xposition Yposition Zposition Xrotation Yrotation Zrotation
				JOINT Joint5
				{
					OFFSET -0.629534 0.000001 0.940221
					CHANNELS 6 Xposition Yposition Zposition Xrotation Yrotation Zrotation
					JOINT Joint6
					{
						OFFSET -0.000001 0.113772 1.960660
						CHANNELS 6 Xposition Yposition Zposition Xrotation Yrotation Zrotation
						JOINT Joint7
						{
							OFFSET -0.669733 -0.113771 0.388340
							CHANNELS 6 Xposition Yposition Zposition Xrotation Yrotation Zrotation
							End Site
							{
								OFFSET 0.005509 0.005509 0.438980
							}
						}
					}
				}
			}
		}
	}
}
MOTION
Frames: 17
Frame Time: 0.041667
0.000000 0.000000 0.000000 -0.000000 1.019410 -82.900116 -0.000000 -0.000000 1.456275 -0.000000 -39.872179 0.000000 -0.000000 0.000002 1.471446 -0.000003 -1.133465 -68.825521 0.625745 0.000000 0.917755 0.000000 114.204410 -0.000004 -0.629534 0.000001 0.940220 0.000001 1.709736 31.339001 -0.000001 0.113771 1.960660 -88.303882 150.669055 0.000001 -0.669733 -0.113771 0.388340 -0.863175 3.553979 143.895366 
0.000000 0.000000 0.000000 -0.000000 1.019410 -85.678931 -0.000000 0.000000 1.456275 0.000000 -39.700850 -0.000000 -0.000000 0.000002 1.471446 -0.000004 -1.133465 -71.131728 0.625745 0.000001 0.917755 0.000000 113.506522 0.000004 -0.629533 0.000001 0.940221 -0.000002 1.709736 32.390154 -0.000000 0.113772 1.960660 -88.303875 152.703728 -0.000002 -0.669733 -0.113771 0.388340 -0.868423 3.553147 144.194473 
0.000000 0.000000 0.000000 -0.000000 1.019410 -88.426197 -0.000000 -0.000000 1.456275 0.000000 -39.531468 -0.000000 -0.000000 0.000002 1.471445 -0.000004 -1.133466 -73.411747 0.625745 0.000001 0.917755 0.000015 112.816557 -0.000002 -0.629534 0.000001 0.940221 -0.000000 1.709736 33.429377 -0.000001 0.113772 1.960661 -88.303882 154.715300 0.000000 -0.669733 -0.113771 0.388339 -0.873605 3.552296 144.490179 
0.000000 0.000000 0.000000 -0.000000 1.019410 -90.582515 -0.000000 0.000000 1.456275 0.000000 -39.398522 -0.000000 -0.000000 0.000002 1.471446 -0.000004 -1.133461 -75.201325 0.625745 0.000001 0.917755 0.000002 112.275005 0.000003 -0.629534 0.000001 0.940221 0.000000 1.709738 34.245052 -0.000000 0.113772 1.960660 -88.303882 156.294181 -0.000001 -0.669733 -0.113771 0.388340 -0.877671 3.551609 144.722283 
0.000000 0.000000 0.000000 -0.000000 1.019410 -92.310266 -0.000000 0.000000 1.456275 -0.000000 -39.292002 0.000000 -0.000000 0.000002 1.471445 -0.000004 -1.133467 -76.635221 0.625745 0.000000 0.917755 0.000011 111.841090 -0.000004 -0.629534 0.000001 0.940220 0.000000 1.709737 34.898623 -0.000001 0.113772 1.960660 -88.303882 157.559255 -0.000001 -0.669733 -0.113771 0.388340 -0.880925 3.551048 144.908269 
0.000000 0.000000 0.000000 -0.000000 1.019410 -93.952285 -0.000000 -0.000000 1.456275 -0.000000 -39.190758 0.000000 -0.000001 0.000002 1.471445 -0.000004 -1.133465 -77.997974 0.625745 0.000000 0.917755 0.000008 111.428710 -0.000000 -0.629533 0.000000 0.940221 -0.000000 1.709737 35.519757 -0.000001 0.113772 1.960660 -88.303882 158.761559 -0.000002 -0.669733 -0.113771 0.388340 -0.884019 3.550504 145.085007 
0.000000 0.000000 0.000000 -0.000000 1.019410 -95.765720 -0.000000 -0.000000 1.456275 0.000000 -39.078948 -0.000000 -0.000000 0.000002 1.471446 -0.000004 -1.133462 -79.502985 0.625745 0.000000 0.917755 0.000010 110.973273 -0.000002 -0.629533 0.000001 0.940221 -0.000001 1.709739 36.205730 -0.000001 0.113772 1.960660 -88.303882 160.089389 0.000001 -0.669733 -0.113771 0.388340 -0.887430 3.549892 145.280200 
0.000000 0.000000 0.000000 -0.000000 1.019410 -97.664882 -0.000000 0.000000 1.456275 -0.000000 -38.961854 0.000001 -0.000000 0.000002 1.471446 -0.000004 -1.133464 -81.079147 0.625745 0.000000 0.917755 0.000007 110.496307 -0.000003 -0.629534 0.000001 0.940221 -0.000000 1.709737 36.924132 -0.000001 0.113772 1.960660 -88.303882 161.479974 0.000002 -0.669733 -0.113771 0.388340 -0.891004 3.549238 145.484628 
0.000000 0.000000 0.000000 -0.000000 1.019410 -99.478372 -0.000000 -0.000000 1.456275 0.000000 -38.850048 0.000000 -0.000000 0.000002 1.471446 -0.000004 -1.133467 -82.584207 0.625745 0.000000 0.917755 0.000006 110.040857 -0.000003 -0.629534 0.000001 0.940221 0.000000 1.709739 37.610126 -0.000001 0.113772 1.960660 -88.303882 162.807818 0.000002 -0.669733 -0.113771 0.388340 -0.894410 3.548603 145.679821 
0.000000 0.000000 0.000000 -0.000000 1.019410 -101.120479 -0.000000 -0.000000 1.456275 -0.000000 -38.748800 -0.000000 -0.000000 0.000002 1.471446 -0.000005 -1.133466 -83.947034 0.625745 0.000000 0.917755 0.000006 109.628450 -0.000003 -0.629534 0.000001 0.940221 -0.000001 1.709737 38.231301 -0.000000 0.113771 1.960661 -88.303875 164.010191 0.000002 -0.669733 -0.113771 0.388339 -0.897493 3.548018 145.856572 
0.000000 0.000000 0.000000 -0.000000 1.019410 -102.848265 -0.000000 -0.000000 1.456275 -0.000000 -38.642277 0.000000 -0.000000 0.000002 1.471446 -0.000005 -1.133460 -85.380957 0.625744 0.000000 0.917754 0.000006 109.194521 -0.000006 -0.629533 0.000001 0.940221 -0.000001 1.709736 38.884875 -0.000001 0.113772 1.960660 -88.303875 165.275292 -0.000000 -0.669733 -0.113771 0.388340 -0.900737 3.547392 146.042545 
0.000000 0.000000 0.000000 -0.000000 1.019410 -105.004460 -0.000000 0.000000 1.456275 -0.000001 -38.509334 -0.000000 -0.000000 0.000002 1.471446 -0.000004 -1.133466 -87.170433 0.625744 0.000000 0.917755 0.000009 108.653010 -0.000002 -0.629533 0.000001 0.940221 0.000001 1.709737 39.700505 -0.000001 0.113771 1.960661 -88.303882 166.854063 0.000001 -0.669733 -0.113771 0.388340 -0.904784 3.546595 146.274635 
0.000000 0.000000 0.000000 -0.000000 1.019410 -107.751487 -0.000000 0.000000 1.456275 -0.000000 -38.339969 -0.000000 -0.000000 0.000002 1.471446 -0.000005 -1.133466 -89.450261 0.625745 0.000001 0.917756 0.000006 107.963106 -0.000005 -0.629534 0.000001 0.940221 0.000001 1.709738 40.739640 -0.000000 0.113772 1.960660 -88.303882 168.865472 0.000001 -0.669733 -0.113771 0.388339 -0.909932 3.545557 146.570327 
0.000000 0.000000 0.000000 -0.000000 1.019410 -110.530540 -0.000000 0.000000 1.456275 -0.000001 -38.168624 0.000000 -0.000000 0.000002 1.471445 -0.000006 -1.133464 -91.756652 0.625745 0.000000 0.917755 0.000008 107.265157 -0.000012 -0.629534 0.000001 0.940221 -0.000002 1.709736 41.790885 -0.000001 0.113772 1.960661 -88.303875 170.900322 0.000000 -0.669733 -0.113771 0.388340 -0.915131 3.544479 146.869476 
0.000000 0.000000 0.000000 -0.000000 1.019410 -112.765009 -0.000000 0.000000 1.456275 -0.000000 -38.030859 -0.000001 -0.000000 0.000002 1.471445 -0.000006 -1.133463 -93.611096 0.625745 0.000000 0.917755 0.000008 106.703981 -0.000007 -0.629534 0.000001 0.940221 -0.000000 1.709736 42.636117 -0.000001 0.113772 1.960660 -88.303882 172.536411 0.000001 -0.669733 -0.113771 0.388340 -0.919311 3.543594 147.109980 
0.000000 0.000000 0.000000 -0.000000 1.019410 -114.528366 -0.000000 0.000000 1.456275 -0.000002 -37.922132 0.000001 -0.000000 0.000002 1.471446 -0.000005 -1.133464 -95.074546 0.625745 0.000000 0.917755 0.000014 106.261119 -0.000002 -0.629534 0.000001 0.940221 -0.000000 1.709736 43.303153 -0.000001 0.113772 1.960661 -88.303882 173.827563 -0.000001 -0.669733 -0.113771 0.388340 -0.922607 3.542883 147.299778 
0.000000 0.000000 0.000000 -0.000000 1.019410 -116.056635 -0.000000 0.000000 1.456275 0.000000 -37.827910 0.000000 -0.000000 0.000002 1.471446 -0.000007 -1.133465 -96.342885 0.625745 0.000001 0.917755 0.000002 105.877303 -0.000003 -0.629533 0.000001 0.940221 0.000001 1.709734 43.881254 -0.000000 0.113772 1.960661 -88.303882 174.946580 -0.000000 -0.669734 -0.113771 0.388340 -0.925460 3.542258 147.464276 
